<?xml version="1.0" encoding="UTF-8"?><svg id="Layer_3" xmlns="http://www.w3.org/2000/svg" viewBox="0 0 992.22 997.84"><defs><style>.cls-1{fill:#404041;}</style></defs><path class="cls-1" d="m496.11,0C222.12,0,0,223.37,0,498.92s222.12,498.92,496.11,498.92,496.11-223.37,496.11-498.92S770.1,0,496.11,0Zm-226.29,438.8l5.27-5.29c18.13-18.17,49.15-19.42,68.93-2.77l106.27,89.43V203.53c0-24.65,21.96-44.81,48.79-44.81h7.81c26.83,0,48.79,20.17,48.79,44.81v305.68l91.64-89.5c18.38-17.95,49.42-18.83,68.97-1.95l5.69,4.91c19.55,16.89,20.5,45.39,2.12,63.35l-174.56,170.49c-6.86,11.29-18.87,19.62-33.07,22.24-7.59,1.88-15.59,2.07-23.28.54-15.68-1.76-29.13-10.41-36.6-22.55l-183.75-154.63c-19.79-16.65-21.14-45.14-3.01-63.31Zm529.36,335.45c0,13.35-13.77,24.27-30.59,24.27H225.57c-16.83,0-30.59-10.92-30.59-24.27v-153.74c0-13.35,13.77-24.27,30.59-24.27h10.2c16.83,0,30.59,10.92,30.59,24.27v105.19h461.43v-105.19c0-13.35,13.77-24.27,30.59-24.27h10.2c16.83,0,30.59,10.92,30.59,24.27v153.74Z"/></svg>
